<?xml version="1.0" encoding="UTF-8"?>
<svg width="24px" height="24px" viewBox="0 0 24 24" version="1.1" xmlns="http://www.w3.org/2000/svg">
    <g stroke="none" stroke-width="1" fill="none" fill-rule="evenodd">
        <circle fill="#FFE066" cx="12" cy="12" r="4" />
        <path d="M12,2 C9.79,2 8,3.79 8,6 C8,7.5 8.75,8.82 9.92,9.53 C7.68,10.5 6,12.79 6,15.5 C6,17.71 7.79,19.5 10,19.5 C11.5,19.5 12.82,18.75 13.53,17.58 C14.5,19.82 16.79,21.5 19.5,21.5 C21.71,21.5 23.5,19.71 23.5,17.5 C23.5,16 22.75,14.68 21.58,13.97 C23.82,13 25.5,10.71 25.5,8 C25.5,5.79 23.71,4 21.5,4 C20,4 18.68,4.75 17.97,5.92 C17,3.68 14.71,2 12,2 Z" fill="#FF80AB" transform="translate(-4, -0.5)"/>
    </g>
</svg>