<?xml version="1.0" encoding="UTF-8"?>
<svg width="24px" height="24px" viewBox="0 0 24 24" version="1.1" xmlns="http://www.w3.org/2000/svg">
    <g stroke="none" stroke-width="1" fill="none" fill-rule="evenodd">
        <path d="M20,2 L4,2 C2.9,2 2,2.9 2,4 L2,22 L6,18 L20,18 C21.1,18 22,17.1 22,16 L22,4 C22,2.9 21.1,2 20,2 Z M8,14 L16,14 C16.55,14 17,14.45 17,15 C17,15.55 16.55,16 16,16 L8,16 C7.45,16 7,15.55 7,15 C7,14.45 7.45,14 8,14 Z M16,12 L8,12 C7.45,12 7,11.55 7,11 C7,10.45 7.45,10 8,10 L16,10 C16.55,10 17,10.45 17,11 C17,11.55 16.55,12 16,12 Z M16,8 L8,8 C7.45,8 7,7.55 7,7 C7,6.45 7.45,6 8,6 L16,6 C16.55,6 17,6.45 17,7 C17,7.55 16.55,8 16,8 Z" fill="currentColor"/>
    </g>
</svg>